# xmcd
#
# Track frame offsets: 
#        150
#        29706
#        49315
#        71183
#        86384
#        94783
#        107580
#        128120
#        149418
#        173075
#        202803
#        224901
#        240386
#        256631
#        273144
#        293188
#        335754
#
# Disc length: 4560 seconds
#
# Revision: 0
# Processed by: cddbd v1.5.2PL0 Copyright (c) Steve Scherf et al.
# Submitted via: ExactAudioCopy v0.95b4
#
DISCID=0311ce11
DTITLE=Various Artist - Noxious Art Will Never Die!!!
DYEAR=2006
DGENRE=Electronic
TTITLE0=KL - Already Dead
TTITLE1=Ambassador21 - Smith And Wesson (Touch Gun Mix)
TTITLE2=Dive /Power Of Passion (Remix By Bahntier)
TTITLE3=Lewsor vs Chrysalide - Noxious Circus
TTITLE4=Dexy Corp - Homo Syntheticus
TTITLE5=Ten Data Keshin vs F.Y.D. - Mind Censor
TTITLE6=Cdatakill - Falling From The Sky (Remix By Kids Return)
TTITLE7=Mental Agression vs Brilliant Beast - CPU Tourette Syndrome
TTITLE8=Lith - Genic
TTITLE9=Ebola - Transmission 0
TTITLE10=Strom Vark - Hate Music Love Sequencer
TTITLE11=Ripit - Kiero Puta
TTITLE12=HIV+ vs Melek-Tha - Fear
TTITLE13=Synapscape - Thumbnail Service
TTITLE14=Muckrackers vs White Dolls - Audio Slut Konkassor (First Flus
TTITLE14=h Version)
TTITLE15=Panic DHH - J Death
TTITLE16=Data Track
EXTD=
EXTT0=
EXTT1=
EXTT2=
EXTT3=
EXTT4=
EXTT5=
EXTT6=
EXTT7=
EXTT8=
EXTT9=
EXTT10=
EXTT11=
EXTT12=
EXTT13=
EXTT14=
EXTT15=
EXTT16=
PLAYORDER=
